<svg xmlns = "http://www.w3.org/2000/svg" width = "1000" height = "1000">
<g>
<polygon points = "831.729, 7.960 799.851, 23.091 753.011, 0.000 834.897, 0.000 "
fill = "none" stroke = "black"/>
</g>
<g>
<polygon points = "566.622, 466.899 575.551, 468.157 576.862, 470.790 571.278, 480.462 "
fill = "none" stroke = "black"/>
</g>
<g>
<polygon points = "914.584, 404.025 901.290, 314.565 1000.000, 277.764 1000.000, 431.739 "
fill = "none" stroke = "black"/>
</g>
<g>
<polygon points = ""
fill = "none" stroke = "black"/>
</g>
<g>
<polygon points = "75.755, 578.961 121.793, 623.555 128.166, 727.079 70.741, 749.950 0.000, 736.719 0.000, 541.788 "
fill = "none" stroke = "black"/>
</g>
<g>
<polygon points = ""
fill = "none" stroke = "black"/>
</g>
<g>
<polygon points = "779.279, 1000.000 777.457, 945.296 858.203, 873.278 998.110, 915.439 1000.000, 918.509 1000.000, 1000.000 "
fill = "none" stroke = "black"/>
</g>
<g>
<polygon points = ""
fill = "none" stroke = "black"/>
</g>
<g>
<polygon points = "421.998, 620.695 416.536, 631.883 393.346, 674.628 334.710, 603.115 315.727, 567.267 386.649, 545.782 "
fill = "none" stroke = "black"/>
</g>
<g>
<polygon points = "906.974, 410.697 871.644, 402.199 848.633, 342.179 870.279, 310.976 901.290, 314.565 914.584, 404.025 "
fill = "none" stroke = "black"/>
</g>
<g>
<polygon points = "418.312, 973.646 430.556, 958.765 702.315, 871.023 777.457, 945.296 779.279, 1000.000 408.647, 1000.000 "
fill = "none" stroke = "black"/>
</g>
<g>
<polygon points = "147.381, 281.907 146.069, 277.809 300.002, 202.210 399.894, 285.453 365.606, 314.592 "
fill = "none" stroke = "black"/>
</g>
<g>
<polygon points = "705.800, 502.353 748.417, 543.287 741.406, 585.334 635.634, 608.761 611.490, 604.887 569.883, 506.104 571.278, 480.462 576.862, 470.790 "
fill = "none" stroke = "black"/>
</g>
<g>
<polygon points = "324.707, 70.590 177.953, 28.075 206.508, 0.000 248.470, 0.000 "
fill = "none" stroke = "black"/>
</g>
<g>
<polygon points = ""
fill = "none" stroke = "black"/>
</g>
<g>
<polygon points = "463.812, 369.865 452.511, 376.254 365.606, 314.592 399.894, 285.453 441.968, 277.174 466.301, 351.068 "
fill = "none" stroke = "black"/>
</g>
<g>
<polygon points = ""
fill = "none" stroke = "black"/>
</g>
<g>
<polygon points = "856.760, 16.806 868.107, 53.056 836.069, 226.392 792.172, 285.090 781.330, 290.469 759.278, 287.416 721.996, 265.311 688.159, 206.693 799.851, 23.091 831.729, 7.960 "
fill = "none" stroke = "black"/>
</g>
<g>
<polygon points = ""
fill = "none" stroke = "black"/>
</g>
<g>
<polygon points = ""
fill = "none" stroke = "black"/>
</g>
<g>
<polygon points = ""
fill = "none" stroke = "black"/>
</g>
<g>
<polygon points = ""
fill = "none" stroke = "black"/>
</g>
<g>
<polygon points = ""
fill = "none" stroke = "black"/>
</g>
<g>
<polygon points = "998.110, 915.439 858.203, 873.278 869.308, 782.419 879.640, 769.037 1000.000, 774.057 1000.000, 915.352 "
fill = "none" stroke = "black"/>
</g>
<g>
<polygon points = "437.438, 183.487 461.749, 234.556 445.178, 250.571 405.166, 174.093 "
fill = "none" stroke = "black"/>
</g>
<g>
<polygon points = "525.740, 588.074 569.883, 506.104 611.490, 604.887 574.247, 645.734 "
fill = "none" stroke = "black"/>
</g>
<g>
<polygon points = ""
fill = "none" stroke = "black"/>
</g>
<g>
<polygon points = "534.929, 236.724 547.340, 297.643 466.301, 351.068 441.968, 277.174 445.178, 250.571 461.749, 234.556 "
fill = "none" stroke = "black"/>
</g>
<g>
<polygon points = ""
fill = "none" stroke = "black"/>
</g>
<g>
<polygon points = "880.119, 534.518 910.689, 569.640 905.074, 585.077 898.819, 595.340 787.666, 604.487 741.406, 585.334 748.417, 543.287 "
fill = "none" stroke = "black"/>
</g>
<g>
<polygon points = "177.953, 28.075 61.266, 90.121 15.159, 0.000 206.508, 0.000 "
fill = "none" stroke = "black"/>
</g>
<g>
<polygon points = "393.391, 163.841 351.404, 151.103 357.853, 120.981 "
fill = "none" stroke = "black"/>
</g>
<g>
<polygon points = "901.290, 314.565 870.279, 310.976 858.866, 298.957 836.069, 226.392 868.107, 53.056 932.265, 52.123 1000.000, 90.301 1000.000, 277.764 "
fill = "none" stroke = "black"/>
</g>
<g>
<polygon points = "286.029, 557.513 407.369, 460.904 386.649, 545.782 315.727, 567.267 "
fill = "none" stroke = "black"/>
</g>
<g>
<polygon points = "64.339, 465.481 75.755, 578.961 0.000, 541.788 0.000, 495.387 "
fill = "none" stroke = "black"/>
</g>
<g>
<polygon points = "618.235, 41.452 605.992, 170.897 534.929, 236.724 461.749, 234.556 437.438, 183.487 "
fill = "none" stroke = "black"/>
</g>
<g>
<polygon points = "750.925, 743.757 635.634, 608.761 741.406, 585.334 787.666, 604.487 "
fill = "none" stroke = "black"/>
</g>
<g>
<polygon points = "946.970, 464.126 906.974, 410.697 914.584, 404.025 1000.000, 431.739 1000.000, 436.809 "
fill = "none" stroke = "black"/>
</g>
<g>
<polygon points = ""
fill = "none" stroke = "black"/>
</g>
<g>
<polygon points = "858.859, 446.298 880.119, 534.518 748.417, 543.287 705.800, 502.353 "
fill = "none" stroke = "black"/>
</g>
<g>
<polygon points = ""
fill = "none" stroke = "black"/>
</g>
<g>
<polygon points = "683.896, 836.916 759.495, 773.711 869.308, 782.419 858.203, 873.278 777.457, 945.296 702.315, 871.023 "
fill = "none" stroke = "black"/>
</g>
<g>
<polygon points = ""
fill = "none" stroke = "black"/>
</g>
<g>
<polygon points = ""
fill = "none" stroke = "black"/>
</g>
<g>
<polygon points = "610.160, 382.063 759.278, 287.416 781.330, 290.469 848.633, 342.179 871.644, 402.199 858.859, 446.298 705.800, 502.353 576.862, 470.790 575.551, 468.157 "
fill = "none" stroke = "black"/>
</g>
<g>
<polygon points = ""
fill = "none" stroke = "black"/>
</g>
<g>
<polygon points = "932.265, 52.123 901.977, 0.000 1000.000, 0.000 1000.000, 90.301 "
fill = "none" stroke = "black"/>
</g>
<g>
<polygon points = "932.265, 52.123 868.107, 53.056 856.760, 16.806 858.588, 0.000 901.977, 0.000 "
fill = "none" stroke = "black"/>
</g>
<g>
<polygon points = "856.760, 16.806 831.729, 7.960 834.897, 0.000 858.588, 0.000 "
fill = "none" stroke = "black"/>
</g>
<g>
<polygon points = ""
fill = "none" stroke = "black"/>
</g>
<g>
<polygon points = "61.266, 90.121 108.433, 246.230 0.000, 226.801 0.000, 0.000 15.159, 0.000 "
fill = "none" stroke = "black"/>
</g>
<g>
<polygon points = "563.433, 303.414 721.996, 265.311 759.278, 287.416 610.160, 382.063 "
fill = "none" stroke = "black"/>
</g>
<g>
<polygon points = "558.121, 760.863 574.247, 645.734 611.490, 604.887 635.634, 608.761 750.925, 743.757 759.495, 773.711 683.896, 836.916 "
fill = "none" stroke = "black"/>
</g>
<g>
<polygon points = ""
fill = "none" stroke = "black"/>
</g>
<g>
<polygon points = ""
fill = "none" stroke = "black"/>
</g>
<g>
<polygon points = "503.074, 772.057 558.121, 760.863 683.896, 836.916 702.315, 871.023 430.556, 958.765 "
fill = "none" stroke = "black"/>
</g>
<g>
<polygon points = "247.844, 794.358 246.720, 789.351 250.014, 790.134 "
fill = "none" stroke = "black"/>
</g>
<g>
<polygon points = ""
fill = "none" stroke = "black"/>
</g>
<g>
<polygon points = "391.475, 725.445 340.849, 765.551 250.014, 790.134 246.720, 789.351 128.166, 727.079 121.793, 623.555 268.793, 560.840 334.710, 603.115 393.346, 674.628 "
fill = "none" stroke = "black"/>
</g>
<g>
<polygon points = ""
fill = "none" stroke = "black"/>
</g>
<g>
<polygon points = "858.866, 298.957 792.172, 285.090 836.069, 226.392 "
fill = "none" stroke = "black"/>
</g>
<g>
<polygon points = ""
fill = "none" stroke = "black"/>
</g>
<g>
<polygon points = "879.640, 769.037 898.819, 595.340 905.074, 585.077 1000.000, 599.371 1000.000, 774.057 "
fill = "none" stroke = "black"/>
</g>
<g>
<polygon points = ""
fill = "none" stroke = "black"/>
</g>
<g>
<polygon points = "688.159, 206.693 605.992, 170.897 618.235, 41.452 627.988, 18.580 648.112, 0.000 753.011, 0.000 799.851, 23.091 "
fill = "none" stroke = "black"/>
</g>
<g>
<polygon points = "569.883, 506.104 525.740, 588.074 427.230, 619.705 421.998, 620.695 386.649, 545.782 407.369, 460.904 452.511, 376.254 463.812, 369.865 566.622, 466.899 571.278, 480.462 "
fill = "none" stroke = "black"/>
</g>
<g>
<polygon points = ""
fill = "none" stroke = "black"/>
</g>
<g>
<polygon points = ""
fill = "none" stroke = "black"/>
</g>
<g>
<polygon points = "108.433, 246.230 61.266, 90.121 177.953, 28.075 324.707, 70.590 338.775, 83.039 347.837, 93.372 357.853, 120.981 351.404, 151.103 300.002, 202.210 146.069, 277.809 "
fill = "none" stroke = "black"/>
</g>
<g>
<polygon points = "952.539, 544.745 946.970, 464.126 1000.000, 436.809 1000.000, 542.182 "
fill = "none" stroke = "black"/>
</g>
<g>
<polygon points = "348.997, 80.741 347.837, 93.372 338.775, 83.039 "
fill = "none" stroke = "black"/>
</g>
<g>
<polygon points = ""
fill = "none" stroke = "black"/>
</g>
<g>
<polygon points = ""
fill = "none" stroke = "black"/>
</g>
<g>
<polygon points = ""
fill = "none" stroke = "black"/>
</g>
<g>
<polygon points = "605.992, 170.897 688.159, 206.693 721.996, 265.311 563.433, 303.414 547.340, 297.643 534.929, 236.724 "
fill = "none" stroke = "black"/>
</g>
<g>
<polygon points = "348.997, 80.741 338.775, 83.039 324.707, 70.590 248.470, 0.000 369.975, 0.000 "
fill = "none" stroke = "black"/>
</g>
<g>
<polygon points = "952.539, 544.745 910.689, 569.640 880.119, 534.518 858.859, 446.298 871.644, 402.199 906.974, 410.697 946.970, 464.126 "
fill = "none" stroke = "black"/>
</g>
<g>
<polygon points = "108.433, 246.230 146.069, 277.809 147.381, 281.907 82.977, 450.076 64.339, 465.481 0.000, 495.387 0.000, 226.801 "
fill = "none" stroke = "black"/>
</g>
<g>
<polygon points = "351.404, 151.103 393.391, 163.841 405.166, 174.093 445.178, 250.571 441.968, 277.174 399.894, 285.453 300.002, 202.210 "
fill = "none" stroke = "black"/>
</g>
<g>
<polygon points = "70.741, 749.950 128.166, 727.079 246.720, 789.351 247.844, 794.358 196.176, 1000.000 112.752, 1000.000 "
fill = "none" stroke = "black"/>
</g>
<g>
<polygon points = "905.074, 585.077 910.689, 569.640 952.539, 544.745 1000.000, 542.182 1000.000, 599.371 "
fill = "none" stroke = "black"/>
</g>
<g>
<polygon points = "627.988, 18.580 618.235, 41.452 437.438, 183.487 405.166, 174.093 393.391, 163.841 357.853, 120.981 347.837, 93.372 348.997, 80.741 369.975, 0.000 632.726, 0.000 "
fill = "none" stroke = "black"/>
</g>
<g>
<polygon points = "70.741, 749.950 112.752, 1000.000 0.000, 1000.000 0.000, 736.719 "
fill = "none" stroke = "black"/>
</g>
<g>
<polygon points = "427.230, 619.705 525.740, 588.074 574.247, 645.734 558.121, 760.863 503.074, 772.057 391.475, 725.445 393.346, 674.628 416.536, 631.883 "
fill = "none" stroke = "black"/>
</g>
<g>
<polygon points = "781.330, 290.469 792.172, 285.090 858.866, 298.957 870.279, 310.976 848.633, 342.179 "
fill = "none" stroke = "black"/>
</g>
<g>
<polygon points = "427.230, 619.705 416.536, 631.883 421.998, 620.695 "
fill = "none" stroke = "black"/>
</g>
<g>
<polygon points = ""
fill = "none" stroke = "black"/>
</g>
<g>
<polygon points = ""
fill = "none" stroke = "black"/>
</g>
<g>
<polygon points = "879.640, 769.037 869.308, 782.419 759.495, 773.711 750.925, 743.757 787.666, 604.487 898.819, 595.340 "
fill = "none" stroke = "black"/>
</g>
<g>
<polygon points = "627.988, 18.580 632.726, 0.000 648.112, 0.000 "
fill = "none" stroke = "black"/>
</g>
<g>
<polygon points = "64.339, 465.481 82.977, 450.076 271.017, 558.719 268.793, 560.840 121.793, 623.555 75.755, 578.961 "
fill = "none" stroke = "black"/>
</g>
<g>
<polygon points = "340.849, 765.551 391.475, 725.445 503.074, 772.057 430.556, 958.765 418.312, 973.646 "
fill = "none" stroke = "black"/>
</g>
<g>
<polygon points = "998.110, 915.439 1000.000, 915.352 1000.000, 918.509 "
fill = "none" stroke = "black"/>
</g>
<g>
<polygon points = "547.340, 297.643 563.433, 303.414 610.160, 382.063 575.551, 468.157 566.622, 466.899 463.812, 369.865 466.301, 351.068 "
fill = "none" stroke = "black"/>
</g>
<g>
<polygon points = "271.017, 558.719 82.977, 450.076 147.381, 281.907 365.606, 314.592 452.511, 376.254 407.369, 460.904 286.029, 557.513 "
fill = "none" stroke = "black"/>
</g>
<g>
<polygon points = ""
fill = "none" stroke = "black"/>
</g>
<g>
<polygon points = "268.793, 560.840 271.017, 558.719 286.029, 557.513 315.727, 567.267 334.710, 603.115 "
fill = "none" stroke = "black"/>
</g>
<g>
<polygon points = ""
fill = "none" stroke = "black"/>
</g>
<g>
<polygon points = "247.844, 794.358 250.014, 790.134 340.849, 765.551 418.312, 973.646 408.647, 1000.000 196.176, 1000.000 "
fill = "none" stroke = "black"/>
</g>
<g>
<polygon points = ""
fill = "none" stroke = "black"/>
</g>
<g>
<circle cx = "726.249" cy = "84.661" r="3"/></g>
<g>
<circle cx = "594.324" cy = "484.642" r="3"/></g>
<g>
<circle cx = "975.149" cy = "338.439" r="3"/></g>
<g>
<circle cx = "528.652" cy = "211.507" r="3"/></g>
<g>
<circle cx = "74.101" cy = "670.150" r="3"/></g>
<g>
<circle cx = "583.744" cy = "969.028" r="3"/></g>
<g>
<circle cx = "928.593" cy = "980.248" r="3"/></g>
<g>
<circle cx = "779.372" cy = "663.955" r="3"/></g>
<g>
<circle cx = "342.526" cy = "585.180" r="3"/></g>
<g>
<circle cx = "907.313" cy = "348.520" r="3"/></g>
<g>
<circle cx = "570.630" cy = "992.172" r="3"/></g>
<g>
<circle cx = "286.952" cy = "270.434" r="3"/></g>
<g>
<circle cx = "702.400" cy = "547.044" r="3"/></g>
<g>
<circle cx = "223.708" cy = "127.933" r="3"/></g>
<g>
<circle cx = "717.450" cy = "114.543" r="3"/></g>
<g>
<circle cx = "336.358" cy = "328.572" r="3"/></g>
<g>
<circle cx = "605.524" cy = "933.344" r="3"/></g>
<g>
<circle cx = "768.242" cy = "173.133" r="3"/></g>
<g>
<circle cx = "144.854" cy = "997.616" r="3"/></g>
<g>
<circle cx = "493.874" cy = "902.994" r="3"/></g>
<g>
<circle cx = "692.356" cy = "374.939" r="3"/></g>
<g>
<circle cx = "754.976" cy = "538.203" r="3"/></g>
<g>
<circle cx = "777.466" cy = "248.413" r="3"/></g>
<g>
<circle cx = "976.268" cy = "822.040" r="3"/></g>
<g>
<circle cx = "449.552" cy = "164.578" r="3"/></g>
<g>
<circle cx = "576.174" cy = "600.211" r="3"/></g>
<g>
<circle cx = "791.795" cy = "507.990" r="3"/></g>
<g>
<circle cx = "542.455" cy = "260.705" r="3"/></g>
<g>
<circle cx = "125.137" cy = "871.048" r="3"/></g>
<g>
<circle cx = "765.725" cy = "557.603" r="3"/></g>
<g>
<circle cx = "208.265" cy = "112.226" r="3"/></g>
<g>
<circle cx = "339.419" cy = "161.875" r="3"/></g>
<g>
<circle cx = "924.272" cy = "201.972" r="3"/></g>
<g>
<circle cx = "316.842" cy = "500.397" r="3"/></g>
<g>
<circle cx = "135.156" cy = "545.726" r="3"/></g>
<g>
<circle cx = "546.674" cy = "118.343" r="3"/></g>
<g>
<circle cx = "725.993" cy = "653.567" r="3"/></g>
<g>
<circle cx = "954.439" cy = "402.269" r="3"/></g>
<g>
<circle cx = "180.123" cy = "650.133" r="3"/></g>
<g>
<circle cx = "760.963" cy = "486.074" r="3"/></g>
<g>
<circle cx = "852.648" cy = "640.296" r="3"/></g>
<g>
<circle cx = "764.392" cy = "796.144" r="3"/></g>
<g>
<circle cx = "460.112" cy = "780.082" r="3"/></g>
<g>
<circle cx = "395.438" cy = "859.610" r="3"/></g>
<g>
<circle cx = "734.808" cy = "414.658" r="3"/></g>
<g>
<circle cx = "841.075" cy = "232.706" r="3"/></g>
<g>
<circle cx = "989.629" cy = "86.016" r="3"/></g>
<g>
<circle cx = "923.147" cy = "124.647" r="3"/></g>
<g>
<circle cx = "790.475" cy = "110.220" r="3"/></g>
<g>
<circle cx = "353.935" cy = "632.789" r="3"/></g>
<g>
<circle cx = "73.402" cy = "181.224" r="3"/></g>
<g>
<circle cx = "678.054" cy = "325.241" r="3"/></g>
<g>
<circle cx = "678.850" cy = "693.828" r="3"/></g>
<g>
<circle cx = "537.438" cy = "699.926" r="3"/></g>
<g>
<circle cx = "794.452" cy = "168.607" r="3"/></g>
<g>
<circle cx = "545.504" cy = "914.352" r="3"/></g>
<g>
<circle cx = "208.469" cy = "843.364" r="3"/></g>
<g>
<circle cx = "300.054" cy = "704.914" r="3"/></g>
<g>
<circle cx = "252.274" cy = "659.182" r="3"/></g>
<g>
<circle cx = "363.171" cy = "427.538" r="3"/></g>
<g>
<circle cx = "841.552" cy = "227.959" r="3"/></g>
<g>
<circle cx = "224.489" cy = "659.558" r="3"/></g>
<g>
<circle cx = "981.805" cy = "689.282" r="3"/></g>
<g>
<circle cx = "353.520" cy = "775.621" r="3"/></g>
<g>
<circle cx = "702.385" cy = "133.070" r="3"/></g>
<g>
<circle cx = "452.182" cy = "533.437" r="3"/></g>
<g>
<circle cx = "571.962" cy = "631.527" r="3"/></g>
<g>
<circle cx = "3.909" cy = "898.138" r="3"/></g>
<g>
<circle cx = "221.207" cy = "136.566" r="3"/></g>
<g>
<circle cx = "979.195" cy = "450.329" r="3"/></g>
<g>
<circle cx = "345.281" cy = "27.758" r="3"/></g>
<g>
<circle cx = "678.656" cy = "809.685" r="3"/></g>
<g>
<circle cx = "245.163" cy = "604.055" r="3"/></g>
<g>
<circle cx = "724.099" cy = "264.962" r="3"/></g>
<g>
<circle cx = "656.941" cy = "237.381" r="3"/></g>
<g>
<circle cx = "339.652" cy = "2.714" r="3"/></g>
<g>
<circle cx = "881.195" cy = "457.099" r="3"/></g>
<g>
<circle cx = "43.444" cy = "348.422" r="3"/></g>
<g>
<circle cx = "317.664" cy = "233.580" r="3"/></g>
<g>
<circle cx = "148.454" cy = "856.837" r="3"/></g>
<g>
<circle cx = "989.382" cy = "638.966" r="3"/></g>
<g>
<circle cx = "485.631" cy = "40.642" r="3"/></g>
<g>
<circle cx = "35.638" cy = "875.791" r="3"/></g>
<g>
<circle cx = "495.433" cy = "668.136" r="3"/></g>
<g>
<circle cx = "827.934" cy = "293.453" r="3"/></g>
<g>
<circle cx = "474.119" cy = "649.419" r="3"/></g>
<g>
<circle cx = "692.455" cy = "464.111" r="3"/></g>
<g>
<circle cx = "166.822" cy = "542.833" r="3"/></g>
<g>
<circle cx = "774.679" cy = "666.411" r="3"/></g>
<g>
<circle cx = "657.516" cy = "84.473" r="3"/></g>
<g>
<circle cx = "201.043" cy = "539.098" r="3"/></g>
<g>
<circle cx = "413.939" cy = "863.251" r="3"/></g>
<g>
<circle cx = "982.021" cy = "947.358" r="3"/></g>
<g>
<circle cx = "611.190" cy = "364.965" r="3"/></g>
<g>
<circle cx = "262.696" cy = "432.389" r="3"/></g>
<g>
<circle cx = "323.679" cy = "468.955" r="3"/></g>
<g>
<circle cx = "277.726" cy = "619.496" r="3"/></g>
<g>
<circle cx = "883.664" cy = "836.947" r="3"/></g>
<g>
<circle cx = "317.244" cy = "899.246" r="3"/></g>
<g>
<circle cx = "778.838" cy = "642.565" r="3"/></g>
</svg>
