<svg xmlns = "http://www.w3.org/2000/svg" width = "1000" height = "1000">
<g>
<polygon points = "500.000, 200.000 500.000, 200.000 200.000, 500.000 0.000, 500.000 0.000, 0.000 500.000, 0.000 "
fill = "none" stroke = "black"/>
</g>
<g>
<polygon points = "800.000, 500.000 500.000, 200.000 500.000, 0.000 1000.000, 0.000 1000.000, 500.000 "
fill = "none" stroke = "black"/>
</g>
<g>
<polygon points = "500.000, 800.000 500.000, 800.000 500.000, 200.000 500.000, 200.000 800.000, 500.000 "
fill = "none" stroke = "black"/>
</g>
<g>
<polygon points = "500.000, 1000.000 500.000, 800.000 800.000, 500.000 1000.000, 500.000 1000.000, 1000.000 "
fill = "none" stroke = "black"/>
</g>
<g>
<polygon points = "500.000, 800.000 500.000, 800.000 500.000, 1000.000 0.000, 1000.000 0.000, 500.000 200.000, 500.000 "
fill = "none" stroke = "black"/>
</g>
<g>
<polygon points = "500.000, 800.000 200.000, 500.000 500.000, 200.000 "
fill = "none" stroke = "black"/>
</g>
<g>
<circle cx = "200.000" cy = "400.000" r="3"/></g>
<g>
<circle cx = "800.000" cy = "400.000" r="3"/></g>
<g>
<circle cx = "700.000" cy = "500.000" r="3"/></g>
<g>
<circle cx = "800.000" cy = "600.000" r="3"/></g>
<g>
<circle cx = "200.000" cy = "600.000" r="3"/></g>
<g>
<circle cx = "300.000" cy = "500.000" r="3"/></g>
</svg>
